<svg xmlns="http://www.w3.org/2000/svg" xmlns:xlink="http://www.w3.org/1999/xlink" width="766.275" height="435.448" viewBox="0 0 766.275 435.448">
  <defs>
    <clipPath id="clip-path">
      <rect id="Rectangle_163429" data-name="Rectangle 163429" width="766.275" height="435.448" transform="translate(480.893 126.376)" fill="none"/>
    </clipPath>
  </defs>
  <g id="Group_221974" data-name="Group 221974" transform="translate(-480.893 -126.376)" clip-path="url(#clip-path)">
    <g id="Group_221960" data-name="Group 221960" transform="translate(787.522 302.635)">
      <path id="Path_41918" data-name="Path 41918" d="M1133.739,381.6h0c-3.564,19.418,7.231,39.564,25.864,48.27h0c28.55,13.339,35.693,50.712,13.459,70.432h0c-14.51,12.869-17.28,34.719-6.636,52.353h0c16.308,27.019.248,60-30.266,62.151h0a38.954,38.954,0,0,0-36.6,36.44h0c-2.163,30.378-35.289,46.366-62.429,30.131h0c-17.712-10.6-39.66-7.838-52.587,6.607h0c-19.808,22.133-57.349,15.024-70.749-13.4h0c-8.744-18.55-28.981-29.3-48.486-25.749h0c-29.887,5.436-57.5-22.057-52.043-51.81h0c3.563-19.419-7.232-39.564-25.864-48.27h0c-28.55-13.339-35.693-50.712-13.459-70.432h0c14.51-12.87,17.279-34.719,6.636-52.353h0c-16.308-27.019-.248-60,30.266-62.152h0a38.95,38.95,0,0,0,36.6-36.438h0c2.163-30.379,35.29-46.366,62.431-30.131h0c17.713,10.6,39.661,7.838,52.588-6.607h0c19.808-22.135,57.349-15.024,70.749,13.4h0c8.745,18.548,28.981,29.3,48.486,25.749h0C1111.583,324.354,1139.2,351.846,1133.739,381.6Z" transform="translate(-741.199 -277.611)" fill="none" stroke="#fff" stroke-miterlimit="10" stroke-width="1"/>
      <path id="Path_41919" data-name="Path 41919" d="M1140.65,434.112h0c-3.79,20.656,7.692,42.085,27.513,51.346h0c30.371,14.19,37.967,53.945,14.317,74.922h0c-15.435,13.69-18.382,36.932-7.06,55.69h0c17.348,28.742.265,63.822-32.2,66.112h0a41.437,41.437,0,0,0-38.936,38.762h0c-2.3,32.315-37.54,49.322-66.41,32.052h0c-18.842-11.271-42.189-8.338-55.94,7.028h0c-21.072,23.545-61.005,15.982-75.259-14.253h0c-9.3-19.731-30.828-31.164-51.577-27.39h0c-31.793,5.782-61.168-23.462-55.361-55.114h0c3.791-20.656-7.692-42.085-27.513-51.346h0c-30.371-14.19-37.967-53.945-14.317-74.922h0c15.435-13.69,18.382-36.933,7.06-55.69h0c-17.348-28.742-.265-63.822,32.195-66.114h0A41.435,41.435,0,0,0,836.1,376.435h0c2.3-32.315,37.54-49.323,66.41-32.052h0c18.842,11.271,42.189,8.338,55.94-7.028h0c21.072-23.546,61.005-15.982,75.259,14.253h0c9.3,19.731,30.828,31.163,51.577,27.39h0C1117.083,373.216,1146.458,402.46,1140.65,434.112Z" transform="translate(-743.988 -270.018)" fill="#fff"/>
    </g>
    <g id="Group_221973" data-name="Group 221973" transform="translate(846.719 216.623)">
      <g id="Group_221963" data-name="Group 221963" transform="translate(24.583 107.381)">
        <g id="Group_221962" data-name="Group 221962" transform="translate(0 0)">
          <path id="Path_41920" data-name="Path 41920" d="M896.763,423.277c-12.188,1.889-28.486,6.132-31.908.423-.05-.091-.108-.183-.167-.282-3.488-6.14-10.473-28.3-10.473-28.3s.688-3.115,1.242-3.521c.373-.274,20.209-4.508,33.036-7.218,6.156-1.309,10.7-2.262,10.7-2.262l7.309,5.693.68,24.774S908.943,421.38,896.763,423.277Z" transform="translate(-809.529 -281.687)" fill="#122087"/>
          <path id="Path_41921" data-name="Path 41921" d="M880.009,420.512c-4.815.746-10.267,1.865-15.321,2.585-3.488-6.14-10.473-28.3-10.473-28.3s.688-3.115,1.242-3.521c.373-.274,20.209-4.508,33.036-7.218l1.268.986.67,24.776S892.2,418.615,880.009,420.512Z" transform="translate(-809.529 -281.366)" fill="#3342ac"/>
          <g id="Group_221961" data-name="Group 221961" transform="translate(35.808 115.487)">
            <path id="Path_41922" data-name="Path 41922" d="M902.15,474.889l6.065,51.953H865.46L867.9,483.45c-4.143-3.033-20.715-28.371-20.715-28.371-2.212-9.587,2.486-12.777,2.486-12.777-3.313-10.225,2.76-14.368,2.76-14.368-3.041-5.8,3.041-9.8,3.041-9.8l26.15,5.692,5.611-11.493s-1.931-15.884,4.549-17.259,14.782,37.287,16.439,49.988S902.15,474.889,902.15,474.889Z" transform="translate(-846.597 -395.036)" fill="#d06828"/>
            <path id="Path_41923" data-name="Path 41923" d="M856.7,418.012s8.838-19.058,14.5-18.919,17.124,8.7,19.473,11.737a15.716,15.716,0,0,1,2.486,13.4l-20.3-8.148Z" transform="translate(-844.925 -394.365)" fill="#d06828"/>
            <path id="Path_41924" data-name="Path 41924" d="M855.458,431.516l-1.245-15.486s15.963-9.577,20.5-8.161,19.686,10.761,19.828,15.292-3.682,13.594-3.682,13.594l-7.364-7.08s-11.328-1.7-11.753-1.7S855.458,431.516,855.458,431.516Z" transform="translate(-845.337 -392.936)" fill="#d06828"/>
            <path id="Path_41925" data-name="Path 41925" d="M854.213,439.6V422.886s14.355-7.733,18.777-6.352,19.2,10.5,19.337,14.915-3.591,13.257-3.591,13.257l-7.18-6.905s-11.047-1.656-11.462-1.656S854.213,439.6,854.213,439.6Z" transform="translate(-845.337 -391.506)" fill="#d06828"/>
            <path id="Path_41926" data-name="Path 41926" d="M855.281,434.616s17.565-7.813,21.127-6.876,12,9.689,12.938,12.814,2.371,11.746-1.956,12.13c-4.041.359-7.088-10.786-7.088-10.786l-8.87-1.72L859.7,453.934Z" transform="translate(-845.16 -389.637)" fill="#d06828"/>
          </g>
          <path id="Path_41927" data-name="Path 41927" d="M928.578,341.547s-2.914,32.724-16.638,52.969c0,0-23.286,14.1-52.3,7.311,0,0-32.932-17.841-38.246-51.451Z" transform="translate(-814.959 -288.4)" fill="#d06828"/>
          <ellipse id="Ellipse_935" data-name="Ellipse 935" cx="54.043" cy="46.353" rx="54.043" ry="46.353" transform="matrix(0.991, -0.133, 0.133, 0.991, 0, 14.416)" fill="#ebb044"/>
          <path id="Path_41928" data-name="Path 41928" d="M894.654,371.375c-3.969,3.688-10.406,6.546-17.913,7.507-6.837.871-13.208,0-17.89-2.1-4.341-1.954-7.233-4.963-7.7-8.616-.514-3.994,1.964-7.964,6.338-11.071a35.193,35.193,0,0,1,15.735-5.742A35.9,35.9,0,0,1,889,352.624c5.51,1.865,9.279,5.228,9.818,9.446C899.236,365.343,897.645,368.591,894.654,371.375Z" transform="translate(-810.046 -286.834)" fill="#d06828"/>
          <path id="Path_41929" data-name="Path 41929" d="M893.927,373.759c-3.969,3.688-10.406,6.546-17.913,7.507-6.837.871-13.208,0-17.89-2.1l-1.359-19.687-1.284-18.593,27.253-4.276,5.543,18.4Z" transform="translate(-809.32 -289.218)" fill="#ffc871"/>
          <path id="Path_41930" data-name="Path 41930" d="M888.215,353.516l5.65,18.751c-3.969,3.688-10.406,6.546-17.913,7.507-6.837.871-13.208,0-17.89-2.1L856.7,357.982l-.853-12.361" transform="translate(-809.258 -287.726)" fill="none" stroke="#bf851b" stroke-linecap="square" stroke-linejoin="bevel" stroke-width="0.773"/>
          <path id="Path_41931" data-name="Path 41931" d="M883.191,339.585c.534,5.653-5.231,10.821-12.875,11.544s-14.275-3.276-14.81-8.929,5.231-10.821,12.875-11.544S882.658,333.931,883.191,339.585Z" transform="translate(-809.321 -290.216)" fill="#122087"/>
        </g>
        <path id="Path_41932" data-name="Path 41932" d="M894.274,425.244a.389.389,0,0,0,.091-.177c2.139-9.584-4.777-17.385-12.391-22.051-3.737-2.29-8.078-4.738-12.526-3.163-4.529,1.6-6.742,6.515-8.511,10.573-.211.485.5.907.716.417,1.631-3.741,3.373-7.52,7-9.7,4.313-2.593,9.141.361,12.9,2.592,6.975,4.139,13.409,11.293,12.232,19.849-1.445-3.622-4.994-6.016-8.042-8.232-3.742-2.72-7.72-5.182-12.412-5.67-5.037-.524-9.865,2.243-14.068,4.636a.415.415,0,0,0,.418.716c3.629-2.066,7.341-4.106,11.568-4.526,4.306-.429,8.331,1.7,11.811,3.978,3.439,2.256,7.348,4.778,9.467,8.394a10.765,10.765,0,0,1-.576,11.06c-1.445-3.665-5.31-6.315-8.267-8.585-3.854-2.958-7.954-5.5-12.91-5.845-5.266-.365-10.362,2.432-14.836,4.839-.47.254-.051.968.418.716,4.08-2.195,8.257-4.354,12.953-4.718,4.33-.335,8.3,1.72,11.758,4.1,3.294,2.264,7,4.952,9.286,8.283a8.3,8.3,0,0,1,1.017,2.059.459.459,0,0,0,.159.542,9.781,9.781,0,0,1-2.587,9.211,22.743,22.743,0,0,0-10.466-10.982c-6.345-2.9-13.2.9-18.6,4.074a.415.415,0,0,0,.418.716c5.514-3.243,11.926-6.739,18.343-3.81,5.146,2.348,9.2,8.335,10.721,13.611.737,2.549,1,5.958-.852,8.106-1.975,2.289-4.31-.727-4.946-2.486-.487-1.347-.676-2.773-1.2-4.114-1.346-3.435-5.393-5.074-8.833-4.415-.524.1-.3.9.22.8,4.221-.81,7.436,1.948,8.468,5.873.521,1.981,1.035,3.893,2.581,5.088a.38.38,0,0,0,.033.167,15.307,15.307,0,0,1-6.339,19.3.415.415,0,0,0,.418.716,16.1,16.1,0,0,0,6.978-19.533c.016.007.028.017.045.024,1.719.716,3.493-.774,4.111-2.266,1.079-2.6.689-5.5-.072-8.136a19.4,19.4,0,0,0-.683-1.943.42.42,0,0,0,.114-.073,10.576,10.576,0,0,0,2.944-10.055c-.022-.1-.056-.2-.083-.3A11.938,11.938,0,0,0,894.274,425.244Z" transform="translate(-809.277 -278.835)" fill="#a34409"/>
        <path id="Path_41933" data-name="Path 41933" d="M875.766,462.212c-5.038,1.326-9.338,2.238-11.841-2.47-1.309-2.468-2.129-6.487-2.295-12.818.108-5,1.01-8.2,2.312-10.275a5.683,5.683,0,0,1,7.722-1.847c2.394,1.425,5.46,4.234,7.557,9.719C883.165,454.812,883.456,460.19,875.766,462.212Z" transform="translate(-808.302 -273.102)" fill="#122087"/>
        <path id="Path_41934" data-name="Path 41934" d="M870.016,458.674a24.69,24.69,0,0,1-6.091,1.069c-1.309-2.468-2.129-6.487-2.295-12.818.108-5,1.01-8.2,2.312-10.275a5.644,5.644,0,0,1,5.352-2.626,21.182,21.182,0,0,1,4.185,6.96C877.423,451.275,877.705,456.653,870.016,458.674Z" transform="translate(-808.302 -273.102)" fill="#3342ac"/>
        <line id="Line_415" data-name="Line 415" x1="9.694" y2="2.557" transform="translate(72.234 205.648)" fill="none" stroke="#a34409" stroke-linecap="square" stroke-linejoin="bevel" stroke-width="0.773"/>
      </g>
      <g id="Group_221965" data-name="Group 221965" transform="translate(149.405 139.458)">
        <g id="Group_221964" data-name="Group 221964" transform="translate(0.248 0.146)">
          <path id="Path_41935" data-name="Path 41935" d="M937.167,334.6s-12.276-5.876-13.765-1.53,5.1,11.189,8.184,12.813Z" transform="translate(-923.185 -322.291)" fill="#9c4825"/>
          <path id="Path_41936" data-name="Path 41936" d="M961.972,411.053l-24.336,1.383,4.529-26.89c-14.012-7.3-4.609-20.47-4.609-20.47l-2.479-.987s9.528-38.346,9.851-39.03l14.029,5.581a8.418,8.418,0,0,1,5.295,7.33c.716,12.417,2.494,42.507,2.988,47.231.629,5.987-1.8,15.334-1.8,15.334Z" transform="translate(-921.319 -323.351)" fill="#9c4825"/>
          <path id="Path_41937" data-name="Path 41937" d="M937.636,406.8l4.529-26.89c-14.012-7.3-4.609-20.47-4.609-20.47l-.721-.287a4.144,4.144,0,0,1,.45.01,5.992,5.992,0,0,1,2.094,5.03c-.1,1.09-.491,2.135-.692,3.212a9.234,9.234,0,0,0,7.162,10.761,1.692,1.692,0,0,1,1.184,2.435c-1.353,2.612-.723,5.509-1.389,8.291-.763,3.169.059,18.641,1.328,21.622Z" transform="translate(-921.319 -317.711)" fill="#732b0c"/>
          <path id="Path_41938" data-name="Path 41938" d="M950.864,332.4l-5.721-7.106s-9.664-5.563-11.908,3.411c-.859,5.375,6.108,9.431,6.108,9.431Z" transform="translate(-921.534 -323.594)" fill="#9c4825"/>
          <path id="Path_41939" data-name="Path 41939" d="M948.524,331.943l-13.666.461a6.375,6.375,0,0,0-6.149,5.76c-.246,2.688.034,5.733,1.975,7.637.728-.028,17.982-2.325,17.884-2.441S948.524,331.943,948.524,331.943Z" transform="translate(-922.284 -322.212)" fill="#9c4825"/>
          <path id="Path_41940" data-name="Path 41940" d="M945.6,338.761c-.036.09-10.464,2.138-16.039,3.227a4.981,4.981,0,0,0-4,5.642,7.448,7.448,0,0,0,3.508,5.177c.586.1,18.067-3.125,18.067-3.125Z" transform="translate(-922.804 -321.084)" fill="#9c4825"/>
          <path id="Path_41941" data-name="Path 41941" d="M943.047,345.3l-11.9,3.593a7.045,7.045,0,0,0-4.587,9.339c.072.174.151.348.238.527,2.755,5.683,9.46,7.2,12.148,2.97,0,0,.565-1.781-2.626-2.048l4.545-2.777Z" transform="translate(-922.712 -320.002)" fill="#9c4825"/>
        </g>
        <path id="Path_41942" data-name="Path 41942" d="M976.21,530.2H923.4l14.056-137.277,18.317-1.2,12.987-.851Z" transform="translate(-922.903 -312.316)" fill="#518f60"/>
        <path id="Path_41943" data-name="Path 41943" d="M934.343,385.622H969.4a26.829,26.829,0,0,1,1.354,7.21,8.7,8.7,0,0,1-2.542,6.527,6.439,6.439,0,0,1-10.457-2.9,6.14,6.14,0,0,1-3.906,4.2,5.959,5.959,0,0,1-7.766-6.317,7.661,7.661,0,0,1-5.549,5.513,6.5,6.5,0,0,1-5.158-.847,7.4,7.4,0,0,1-2.769-6.236A23.653,23.653,0,0,1,934.343,385.622Z" transform="translate(-921.379 -313.184)" fill="#518f60"/>
        <path id="Path_41944" data-name="Path 41944" d="M947.766,364.671a8.007,8.007,0,0,0-9.908-1.506,2.592,2.592,0,0,0-1.212.08.311.311,0,0,0-.134.08l-2.276-.041c-.434-.007-.514.669-.075.677l3.532.063a1.989,1.989,0,0,1,.984.784,1.339,1.339,0,0,1-.3,1.765,2.709,2.709,0,0,1-1.15.618,5.779,5.779,0,0,1-1.837.047,9.932,9.932,0,0,1-4.232-1.454,7.789,7.789,0,0,1-3.8-7.163c.312-6.381,8.445-7.1,13.208-8.4.417-.115.322-.79-.1-.674-2.412.662-4.851,1.266-7.245,2a11.577,11.577,0,0,0-3.931,1.888.307.307,0,0,0-.13-.07c-2.391-.674-3.081-3.161-2.253-5.308.748-1.938,2.768-3.059,4.6-3.733,3.724-1.372,8.141-1.593,12.067-1.808.437-.025.332-.7-.1-.674a73.38,73.38,0,0,0-8.856,1.027,18.4,18.4,0,0,0-4.359,1.247c0-.012,0-.02,0-.033-.246-3.5-.324-7.874,3.457-9.536a6.605,6.605,0,0,1,2.576-.464.3.3,0,0,0,.417,0c1.274.022,2.528.19,3.493.1a11.391,11.391,0,0,1,3.178.288c.484.09.588-.642.13-.67-2.16-.133-4.322-.311-6.485-.374-.123,0-.25,0-.376,0-1.928-2.906-1.891-6.9,1.4-8.821,2.728-1.59,6.919.719,9.578,1.628.414.142.668-.491.252-.633-3.432-1.174-7.593-3.47-10.968-1.062-2.944,2.1-2.7,6.1-1.055,8.9a7.1,7.1,0,0,0-2.839.664l-.007-.006c-2.612-1.477-7.522-3.67-9.565.006a4.169,4.169,0,0,0,.367,4.372c1.389,2.305,2.907,4.538,4.366,6.8a.275.275,0,0,0,.044.045c-2.84,2.191-3.453,7.335.5,8.615a7.167,7.167,0,0,0-.531.573c-2.315,2.78-1.831,6.965.192,9.711,2.064,2.8,6.565,4.612,9.911,3.359a2.248,2.248,0,0,0,.4-4.087,7.315,7.315,0,0,1,8.543,1.608C947.526,365.411,948.064,364.994,947.766,364.671Zm-21.5-23.618a17.022,17.022,0,0,1-2.585-4.64c-.55-2.118,1.627-3.409,3.371-3.655,1.831-.26,3.759.855,5.317,1.741-3.072,2.271-3.027,6.2-2.782,9.683a.293.293,0,0,0,.1.2,10.552,10.552,0,0,0-.932.555.3.3,0,0,0-.037-.093Z" transform="translate(-922.973 -323.469)" fill="#732b0c"/>
        <path id="Path_41945" data-name="Path 41945" d="M934.343,385.622H969.4a26.829,26.829,0,0,1,1.354,7.21,8.7,8.7,0,0,1-2.542,6.527,6.439,6.439,0,0,1-10.457-2.9,6.14,6.14,0,0,1-3.906,4.2,5.959,5.959,0,0,1-7.766-6.317,7.661,7.661,0,0,1-5.549,5.513,6.5,6.5,0,0,1-5.158-.847,7.4,7.4,0,0,1-2.769-6.236A23.653,23.653,0,0,1,934.343,385.622Z" transform="translate(-921.379 -313.184)" fill="#518f60"/>
        <path id="Path_41946" data-name="Path 41946" d="M961.064,399.535a6.562,6.562,0,0,1-4.436-4.312,6.14,6.14,0,0,1-3.906,4.2,5.959,5.959,0,0,1-7.766-6.317,7.661,7.661,0,0,1-5.549,5.513" transform="translate(-920.253 -311.946)" fill="none" stroke="#2e6b3d" stroke-miterlimit="10" stroke-width="0.625"/>
      </g>
      <g id="Group_221968" data-name="Group 221968" transform="translate(156.515)">
        <path id="Path_41947" data-name="Path 41947" d="M1080.505,436.812l-2.748-9.317s-5.7-.846-14.4,9.31-22.636,44.326-18.488,48.749l13.2.846,13.615-12.23Z" transform="translate(-910.038 -166.8)" fill="#3342ac"/>
        <path id="Path_41948" data-name="Path 41948" d="M1092.9,457.25l-20.919,44.422c-29.535-21.869-58.573-111.2-58.573-111.2a39.97,39.97,0,0,1-4.172.21,41.568,41.568,0,0,1-25.646-8.981,9.97,9.97,0,0,1-2.643-2.84,3.994,3.994,0,0,1-.193-3.732l15.083-33.316,11.965,1.249c11.248-4.531,20.005,7.016,27.574,26.2l55.433,84.786Z" transform="translate(-920.586 -180.975)" fill="#e48a68"/>
        <line id="Line_416" data-name="Line 416" y1="6.072" x2="5.753" transform="translate(102.278 200.53)" fill="none" stroke="#bf603b" stroke-miterlimit="10" stroke-width="0.625"/>
        <g id="Group_221966" data-name="Group 221966">
          <rect id="Rectangle_163426" data-name="Rectangle 163426" width="8.618" height="160.113" transform="matrix(0.995, 0.099, -0.099, 0.995, 86.547, 85.503)" fill="#9c4825"/>
          <rect id="Rectangle_163427" data-name="Rectangle 163427" width="2.241" height="160.113" transform="translate(86.548 85.503) rotate(5.659)" fill="#732b0c"/>
          <rect id="Rectangle_163428" data-name="Rectangle 163428" width="175.068" height="115.475" transform="translate(11.384 0) rotate(5.658)" fill="#fff"/>
          <path id="Path_41949" data-name="Path 41949" d="M988.377,324.6l-59.3-5.875L940.458,203.81l174.216,17.259h0A115.476,115.476,0,0,1,988.377,324.6Z" transform="translate(-929.074 -203.81)" fill="#fff"/>
        </g>
        <path id="Path_41950" data-name="Path 41950" d="M1014.619,346.881a20.67,20.67,0,0,1-11.239-4.938,7.264,7.264,0,0,1-1.9-2.3,3.221,3.221,0,0,1-.031-2.89c.86-1.544,2.976-1.716,4.742-1.686a55.228,55.228,0,0,1,12.661,1.242,20.141,20.141,0,0,1,10.8,6.362,19.9,19.9,0,0,1,4.021,10.235,50.923,50.923,0,0,1-.187,11.121c-.354,3.626-.82,7.342-2.538,10.556a11.305,11.305,0,0,1-5.65,5.26c-2.74,1.065-4.442-.007-6.641-1.692a22.021,22.021,0,0,1-8.167-12.995C1009.193,358.673,1010.259,351.853,1014.619,346.881Z" transform="translate(-917.152 -182.091)" fill="#e48a68"/>
        <g id="Group_221967" data-name="Group 221967" transform="translate(57.467 152.815)">
          <path id="Path_41951" data-name="Path 41951" d="M983.953,346.682s-2.529-7.212,3.875-11.753c4.531.859,25.246,5.715,25.421,10.8S998.1,350.8,983.953,346.682Z" transform="translate(-977.541 -334.929)" fill="#e48a68"/>
          <path id="Path_41952" data-name="Path 41952" d="M981.66,356.873s-3.852-7.583,2.554-12.123c4.531.858,32.993,4.853,31.775,11.725C1015.054,361.74,995.8,360.991,981.66,356.873Z" transform="translate(-978.029 -333.304)" fill="#e48a68"/>
          <path id="Path_41953" data-name="Path 41953" d="M979.249,367.278s-3.212-6.933,2.726-12.071c4.592.418,33.307,1.651,32.757,8.609C1014.31,369.147,993.724,370.014,979.249,367.278Z" transform="translate(-978.382 -331.574)" fill="#e48a68"/>
          <path id="Path_41954" data-name="Path 41954" d="M981.645,375.381s-5.769-6.4-.658-11.225c4.126.193,30.874-.195,30.654,6.052C1011.473,374.994,994.7,377.259,981.645,375.381Z" transform="translate(-978.3 -330.093)" fill="#e48a68"/>
        </g>
        <path id="Path_41955" data-name="Path 41955" d="M1165.159,510.433l-72.53,12.976c-10.375-8.326-25.384-21.44-34.069-33.867l24.41-47.962,7.193,5.693Z" transform="translate(-907.648 -164.467)" fill="#5f55ad"/>
        <path id="Path_41956" data-name="Path 41956" d="M1118.525,515.773l-25.9,7.636c-10.375-8.326-25.384-21.44-34.069-33.867l24.41-47.962,7.193,5.693a72.015,72.015,0,0,1-10.907,42.789A121.575,121.575,0,0,0,1118.525,515.773Z" transform="translate(-907.648 -164.467)" fill="#3342ac"/>
        <path id="Path_41957" data-name="Path 41957" d="M1044.761,485.552s31.946-20.827,32.89-58.059L1093,444.469s1.628,40.6-33.38,56.924Z" transform="translate(-909.931 -166.798)" fill="#5f55ad"/>
        <path id="Path_41958" data-name="Path 41958" d="M1015.735,335.346c-2.435-.362-13.276-1.641-12.448,3.446q-7.339-2.065-14.678-4.129c-.484-.135-.667.619-.185.755l15.078,4.241c1.113,3.492,5,5.769,8.689,6.74-2.593,3.745-7.858,2.862-11.75,2.39a77.126,77.126,0,0,1-11.336-2.3c-.484-.135-.668.62-.187.754a80.886,80.886,0,0,0,8.1,1.794.355.355,0,0,0,.268.283,88.226,88.226,0,0,1,11.221,3.6,11.109,11.109,0,0,1,4.655,3.017,16.746,16.746,0,0,0,.627,2.978c-.662,1.371-2.692,2.191-4.338,2.36-7.739.8-15.966-.65-23.315-3.016-.478-.154-.66.6-.187.754a66.725,66.725,0,0,0,14.1,2.9c1.285.122,2.576.195,3.867.228a.38.38,0,0,0,.308.185c2.968.177,6.391.538,7.581,3.746,1.492,4.019-4.771,4.677-7.162,4.926a54.175,54.175,0,0,1-18.438-1.365.389.389,0,0,0-.187.754,57.813,57.813,0,0,0,12.419,1.637c1.515.036,3.128.051,4.745-.031a.351.351,0,0,0,.359.248,14.547,14.547,0,0,1,3.305.193c1.847.368,3.706,2.366,2.275,4.319-.72.984-2.262,1.336-3.347,1.71-1.387.48-2.78.941-4.184,1.367-4.858,1.473-10.031,2.137-14.888.329-.471-.175-.65.582-.187.754,6.917,2.577,14.644.294,21.206-2.337,1.778-.713,3.514-2.559,2.382-4.572a4.791,4.791,0,0,0-3.565-2.376,16.613,16.613,0,0,0,3.339-.9c2.148-.859,3.6-3.221,2.448-5.458a6.184,6.184,0,0,0-4.065-3.144,9.573,9.573,0,0,0,5.023-1.239,3.551,3.551,0,0,0,.9-.816,16.788,16.788,0,0,0,10.549,9.922c.478.155.66-.6.187-.754a15.957,15.957,0,0,1-10.263-10.119,4.152,4.152,0,0,0-.727-3.192,16.041,16.041,0,0,1,1.521-9.01c.4-.075.352-.737-.109-.762a14.029,14.029,0,0,1-10.461-5.456c-4.38-5.766,8.138-4.966,10.662-4.59C1016.041,336.175,1016.23,335.421,1015.735,335.346Zm-2.755,11.243a16.219,16.219,0,0,0,1.646.269,16.842,16.842,0,0,0-1.56,7.929,7.455,7.455,0,0,0-1.331-1.148,34.29,34.29,0,0,0-9.931-3.94c.477.052.951.12,1.428.164,3.6.333,7.535.092,9.714-3.188A.338.338,0,0,0,1012.979,346.59Z" transform="translate(-919.708 -182.161)" fill="#bf603b"/>
      </g>
      <text id="FREEDOM" transform="translate(245.175 79.683) rotate(5.658)" fill="#e48a68" font-size="37" font-family="Helvetica"><tspan x="-92.5" y="0">FREEDOM</tspan></text>
      <g id="Group_221971" data-name="Group 221971" transform="translate(219.437 249.467)">
        <g id="Group_221970" data-name="Group 221970">
          <g id="Group_221969" data-name="Group 221969">
            <path id="Path_41959" data-name="Path 41959" d="M988.451,486.1l-5.183,44.4h36.539l-2.089-37.084c3.541-2.592,17.7-24.246,17.7-24.246,1.89-8.193-2.125-10.919-2.125-10.919,2.832-8.738-2.358-12.279-2.358-12.279,2.6-4.957-2.6-8.376-2.6-8.376l-22.349,4.865-4.794-9.821s1.65-13.575-3.888-14.75-12.632,31.865-14.049,42.72S988.451,486.1,988.451,486.1Z" transform="translate(-983.062 -417.858)" fill="#e7b3ae"/>
            <path id="Path_41960" data-name="Path 41960" d="M1024.282,437.494s-7.554-16.286-12.393-16.169-14.634,7.436-16.641,10.032a13.428,13.428,0,0,0-2.125,11.447l17.348-6.963Z" transform="translate(-981.48 -417.285)" fill="#e7b3ae"/>
            <path id="Path_41961" data-name="Path 41961" d="M1025.743,449.036l1.064-13.235s-13.644-8.184-17.519-6.974-16.824,9.2-16.945,13.07,3.147,11.617,3.147,11.617l6.292-6.051s9.682-1.452,10.044-1.452S1025.743,449.036,1025.743,449.036Z" transform="translate(-981.527 -416.064)" fill="#e7b3ae"/>
            <path id="Path_41962" data-name="Path 41962" d="M1026.539,455.94V441.66s-12.269-6.609-16.049-5.429-16.407,8.969-16.525,12.747,3.069,11.329,3.069,11.329l6.136-5.9s9.443-1.416,9.8-1.416S1026.539,455.94,1026.539,455.94Z" transform="translate(-981.259 -414.842)" fill="#e7b3ae"/>
            <path id="Path_41963" data-name="Path 41963" d="M1025.256,451.684s-15.011-6.677-18.055-5.875-10.256,8.28-11.057,10.95-2.026,10.039,1.671,10.368c3.453.307,6.058-9.219,6.058-9.219l7.58-1.471,10.023,11.757Z" transform="translate(-981.039 -413.245)" fill="#e7b3ae"/>
          </g>
        </g>
        <path id="Path_41964" data-name="Path 41964" d="M992.412,443.674a.35.35,0,0,1-.078-.151c-1.828-8.191,4.084-14.857,10.589-18.844,3.194-1.958,6.9-4.049,10.706-2.7,3.87,1.369,5.762,5.567,7.274,9.035.181.414-.429.775-.611.358-1.394-3.2-2.883-6.428-5.986-8.293-3.688-2.217-7.812.309-11.025,2.214-5.961,3.537-11.459,9.652-10.454,16.963,1.235-3.1,4.269-5.141,6.874-7.035,3.2-2.325,6.6-4.428,10.607-4.845,4.305-.449,8.431,1.916,12.023,3.961a.355.355,0,0,1-.358.612c-3.1-1.767-6.274-3.509-9.887-3.868-3.68-.366-7.12,1.45-10.093,3.4-2.94,1.928-6.279,4.083-8.09,7.172a9.2,9.2,0,0,0,.492,9.452c1.234-3.132,4.537-5.4,7.065-7.337,3.294-2.527,6.8-4.7,11.032-5,4.5-.311,8.856,2.079,12.679,4.136.4.217.044.827-.358.612-3.486-1.876-7.056-3.721-11.07-4.032-3.7-.286-7.1,1.47-10.049,3.5-2.815,1.935-5.986,4.233-7.936,7.079a7.092,7.092,0,0,0-.87,1.76.39.39,0,0,1-.135.463,8.359,8.359,0,0,0,2.211,7.872,19.45,19.45,0,0,1,8.945-9.385c5.423-2.475,11.283.77,15.895,3.482a.355.355,0,0,1-.358.612c-4.713-2.773-10.192-5.76-15.676-3.256-4.4,2.007-7.862,7.123-9.163,11.633-.629,2.178-.857,5.092.727,6.928,1.689,1.957,3.684-.621,4.227-2.125.417-1.151.578-2.369,1.027-3.516,1.15-2.936,4.609-4.336,7.55-3.773.448.086.258.769-.189.683-3.607-.691-6.354,1.665-7.238,5.02-.445,1.692-.883,3.326-2.205,4.348a.35.35,0,0,1-.028.142,13.082,13.082,0,0,0,5.417,16.5.355.355,0,0,1-.358.612,13.761,13.761,0,0,1-5.963-16.694c-.014.006-.024.015-.04.021-1.469.611-2.985-.662-3.513-1.936a10.547,10.547,0,0,1,.062-6.953,16.682,16.682,0,0,1,.583-1.662.337.337,0,0,1-.1-.062,9.041,9.041,0,0,1-2.516-8.593c.02-.087.048-.171.07-.256A10.208,10.208,0,0,1,992.412,443.674Z" transform="translate(-981.584 -417.248)" fill="#e48a68"/>
      </g>
      <path id="Path_41965" data-name="Path 41965" d="M931.629,244.852c-11.082-30-48.416-43.837-83.387-30.915s-54.336,47.712-43.254,77.706c8.545,23.128,32.7,36.647,59.338,35.705,3.851,4.838,11.619,14.523,12.46,14.994,1.1.614,11.805-19.087,12.339-20.069C923.621,309.134,942.632,274.631,931.629,244.852Z" transform="translate(-793.607 -202.935)" fill="#fff"/>
      <text id="HUMAN_RIGHTS" data-name="HUMAN
RIGHTS" transform="translate(74.223 60.913) rotate(-7.117)" fill="#e48a68" font-size="29" font-family="Helvetica"><tspan x="-53.164" y="0">HUMAN</tspan><tspan x="-54.779" y="30">RIGHTS</tspan></text>
      <g id="Group_221972" data-name="Group 221972" transform="translate(0 203.832)">
        <path id="Path_41966" data-name="Path 41966" d="M796.571,569.537h56.676l-16.012-42.259a3.794,3.794,0,0,1,1.834-1.861,3.8,3.8,0,0,0,2.014-4.512l-.53-1.775a3.83,3.83,0,0,1-.006-2.134l.834-2.881a41.708,41.708,0,0,0,1.577-14.151c-.762-12.613-3.048-37.913-9.42-50.333a19.958,19.958,0,0,0-3.028-4.506L802.7,441.4l-2.338,61.046a3.139,3.139,0,0,1-.7,1.875c-.417.523,2.431.914,1.748,1.1a3.211,3.211,0,0,0-2.146,4.292l.059.16a3.215,3.215,0,0,1-.305,2.967Z" transform="translate(-794.484 -368.328)" fill="#c765ab"/>
        <path id="Path_41967" data-name="Path 41967" d="M796.571,569.537H815.7c7.558-11.1-20.245-22.331-13.085-33.694,1.8-2.841,3.63-5.869,3.769-9.227.219-5.035-3.16-10.951.345-14.568,2.14-2.206,6.069-2.3,7.612-4.949,1.239-2.12.318-4.783-.464-7.108-5.339-15.885-3.259-33.818-.583-50.36h20.238a19.958,19.958,0,0,0-3.028-4.506L802.7,441.4l-2.338,61.046a3.139,3.139,0,0,1-.7,1.875c-.417.523,2.431.914,1.748,1.1a3.211,3.211,0,0,0-2.146,4.292l.059.16a3.215,3.215,0,0,1-.305,2.967Z" transform="translate(-794.484 -368.328)" fill="#5f55ad"/>
        <path id="Path_41968" data-name="Path 41968" d="M831.67,449.022l-4.572-15.9,9.028-8.254a14.232,14.232,0,0,0,2.918-3.739c2.109-3.9,5.689-11.795,2.435-15.474L814.9,384.321s-4.474-3.534-9.593,4.637-5.562,19.653-5.562,19.653l2.871,38.864Z" transform="translate(-793.959 -377.899)" fill="#e48a68"/>
        <path id="Path_41969" data-name="Path 41969" d="M804.768,432.133c5.738-1.019,12.68-7.967,14.319-13.559-.47,2.466-2.531,8.05-.17,8.9a4.97,4.97,0,0,0,2.742-.044,32.552,32.552,0,0,0,14-6.971c3.558-3.033,6.617-7.817,4.911-12.169-.822-2.094-2.6-3.642-4.355-5.05a117.767,117.767,0,0,0-17.735-11.769,4.391,4.391,0,0,0-2-.683,3.865,3.865,0,0,0-1.869.608c-4.273,2.389-7.056,6.87-8.443,11.565s-1.539,9.651-1.682,14.545C804.346,422.358,804.91,427.283,804.768,432.133Z" transform="translate(-793.178 -376.703)" fill="#bf603b"/>
        <path id="Path_41970" data-name="Path 41970" d="M816.754,424.12c1.2,3.489,17.442-4.6,19.4-8.833,1.2-2.6,3.059-6.192,4.494-9.592a5.267,5.267,0,0,0-1.7-6.3l-.03-.021a8.61,8.61,0,0,0-7.18-1.386l-4.482,12.743S815.564,420.633,816.754,424.12Z" transform="translate(-791.158 -375.556)" fill="#e48a68"/>
        <path id="Path_41971" data-name="Path 41971" d="M812.976,417.226c1.2,3.489,17.444-4.6,19.4-8.833,1.2-2.6,3.058-6.192,4.493-9.592a5.266,5.266,0,0,0-1.7-6.3l-.029-.021a8.617,8.617,0,0,0-7.182-1.386l-16.083,16.321S811.787,413.739,812.976,417.226Z" transform="translate(-791.952 -376.697)" fill="#e48a68"/>
        <path id="Path_41972" data-name="Path 41972" d="M809.934,412.256c1.834,3.2,16.256-7.817,17.376-12.349.686-2.778,1.831-6.659,2.6-10.269a5.266,5.266,0,0,0-2.867-5.866l-.033-.015a8.612,8.612,0,0,0-7.313,0L817.7,397.117S808.105,409.055,809.934,412.256Z" transform="translate(-792.311 -378.001)" fill="#e48a68"/>
        <path id="Path_41973" data-name="Path 41973" d="M811.405,382.02v10.211s-8.686,9.905-6.553,12.648,13.868-5.639,15.392-9.448,3.719-14.43-1.677-16.306A5.446,5.446,0,0,0,811.405,382.02Z" transform="translate(-793.169 -378.703)" fill="#e48a68"/>
        <path id="Path_41974" data-name="Path 41974" d="M802.652,437.4s16.808-3.526,12.219-21.632c0-5.741-7.24-12.145-7.24-12.145s11.154-20.615,3.646-23.265C807.08,379.477,799.24,397,799.24,397a23.018,23.018,0,0,0-4.2,17.223C796.59,424.6,801.962,428.066,802.652,437.4Z" transform="translate(-794.78 -378.434)" fill="#e48a68"/>
        <path id="Path_41975" data-name="Path 41975" d="M807.334,434.41c4.141-2.936,8.282-8.5,5.712-18.644,0-5.741-7.24-12.145-7.24-12.145s11.154-20.615,3.646-23.265" transform="translate(-792.956 -378.429)" fill="none" stroke="#bf603b" stroke-miterlimit="10" stroke-width="0.736"/>
        <path id="Path_41976" data-name="Path 41976" d="M835.193,437.132l-35.329-2.272-.855,12.007,36.183,3.245Z" transform="translate(-794.08 -369.411)" fill="#c765ab"/>
        <path id="Path_41977" data-name="Path 41977" d="M824.905,443.432a2.028,2.028,0,1,0,2.028-2.029A2.028,2.028,0,0,0,824.905,443.432Z" transform="translate(-789.795 -368.328)" fill="#5f55ad"/>
        <path id="Path_41978" data-name="Path 41978" d="M806.762,403.757a17.379,17.379,0,0,0,15.162-19.66c-.058-.418.581-.6.639-.176a18.052,18.052,0,0,1-15.8,20.5C806.338,404.469,806.342,403.807,806.762,403.757Z" transform="translate(-792.85 -377.88)" fill="#bf603b"/>
        <path id="Path_41979" data-name="Path 41979" d="M811.6,411.094a23.238,23.238,0,0,0,17.679-19.6c.055-.417.718-.423.663,0a23.918,23.918,0,0,1-18.166,20.237C811.359,411.832,811.182,411.193,811.6,411.094Z" transform="translate(-792.037 -376.638)" fill="#bf603b"/>
        <path id="Path_41980" data-name="Path 41980" d="M813.381,416.632c9.7-.9,19.628-7.618,21.876-17.495a.314.314,0,0,1,.522-.154.344.344,0,0,1,.125-.026.332.332,0,0,1,0,.663.337.337,0,0,1-.082-.016c-2.444,10.016-12.558,16.777-22.441,17.69C812.956,417.334,812.96,416.671,813.381,416.632Z" transform="translate(-791.755 -375.361)" fill="#bf603b"/>
      </g>
    </g>
  </g>
</svg>
