<svg xmlns="http://www.w3.org/2000/svg" width="45" height="45" viewBox="0 0 45 45">
  <g id="Group_222048" data-name="Group 222048" transform="translate(-1058 -4117.85)">
    <path id="Path_41917" data-name="Path 41917" d="M22.5,0A22.5,22.5,0,1,1,0,22.5,22.5,22.5,0,0,1,22.5,0Z" transform="translate(1058 4117.85)" fill="#e2f0ff"/>
    <g id="email" transform="translate(1067.908 4051.694)">
      <g id="Group_177235" data-name="Group 177235" transform="translate(16.692 83.192)">
        <g id="Group_177234" data-name="Group 177234">
          <path id="Path_41015" data-name="Path 41015" d="M339.392,150.489l8.489,5.367V144.9Z" transform="translate(-339.392 -144.896)" fill="#017afc"/>
        </g>
      </g>
      <g id="Group_177237" data-name="Group 177237" transform="translate(0 83.192)">
        <g id="Group_177236" data-name="Group 177236">
          <path id="Path_41016" data-name="Path 41016" d="M0,144.9v10.96l8.489-5.367Z" transform="translate(0 -144.896)" fill="#017afc"/>
        </g>
      </g>
      <g id="Group_177239" data-name="Group 177239" transform="translate(0.047 80)">
        <g id="Group_177238" data-name="Group 177238">
          <path id="Path_41017" data-name="Path 41017" d="M24.521,80H2.487A1.554,1.554,0,0,0,.96,81.339L13.5,89.6l12.544-8.264A1.554,1.554,0,0,0,24.521,80Z" transform="translate(-0.96 -80)" fill="#017afc"/>
        </g>
      </g>
      <g id="Group_177241" data-name="Group 177241" transform="translate(0.05 89.734)">
        <g id="Group_177240" data-name="Group 177240">
          <path id="Path_41018" data-name="Path 41018" d="M16.224,277.922,14,279.388a.79.79,0,0,1-.866,0L10.9,277.92l-9.881,6.25A1.552,1.552,0,0,0,2.547,285.5H24.581A1.552,1.552,0,0,0,26.1,284.17Z" transform="translate(-1.024 -277.92)" fill="#017afc"/>
        </g>
      </g>
    </g>
  </g>
</svg>
