<svg xmlns="http://www.w3.org/2000/svg" width="45" height="45" viewBox="0 0 45 45">
  <g id="Group_222047" data-name="Group 222047" transform="translate(-1277 -4117.85)">
    <circle id="Ellipse_916" data-name="Ellipse 916" cx="22.5" cy="22.5" r="22.5" transform="translate(1277 4117.85)" fill="#e2f0ff"/>
    <g id="call-2021585" transform="translate(1281.893 4123.1)">
      <path id="Path_41013" data-name="Path 41013" d="M29.924,18.307a.467.467,0,0,0,.469.469.967.967,0,0,1,.966.966.469.469,0,1,0,.937,0,1.9,1.9,0,0,0-1.9-1.9A.47.47,0,0,0,29.924,18.307Zm7.631,1.9a.467.467,0,0,0,.469-.469,7.638,7.638,0,0,0-7.631-7.631.469.469,0,1,0,0,.937,6.7,6.7,0,0,1,6.694,6.694A.47.47,0,0,0,37.555,20.21Z" transform="translate(-12.351 -3.246)" fill="#017afc"/>
      <path id="Path_41014" data-name="Path 41014" d="M21.872,16.5a.469.469,0,1,0,.937,0,4.771,4.771,0,0,0-4.767-4.767.469.469,0,1,0,0,.937A3.834,3.834,0,0,1,21.872,16.5ZM18.042,6a.469.469,0,1,0,0,.938A9.571,9.571,0,0,1,27.6,16.5a.469.469,0,0,0,.938,0A10.509,10.509,0,0,0,18.042,6Zm4.58,15.436-.614.333A2.7,2.7,0,0,1,18.82,21.3l-4.95-4.95a2.708,2.708,0,0,1-.464-3.192l.333-.609a3.611,3.611,0,0,0,.4-2.25A3.614,3.614,0,0,0,10.551,7.2,3.609,3.609,0,0,0,7.982,8.255L7.743,8.5c-1.266,1.266-1.411,3.445-.412,6.145a22.774,22.774,0,0,0,5.334,7.866c3.8,3.8,8.034,5.991,11.072,5.991a4.019,4.019,0,0,0,2.939-1.064l.244-.244a3.628,3.628,0,0,0,1.064-2.569,3.631,3.631,0,0,0-5.363-3.187Z" transform="translate(0)" fill="#017afc"/>
    </g>
  </g>
</svg>
