<svg xmlns="http://www.w3.org/2000/svg" xmlns:xlink="http://www.w3.org/1999/xlink" width="130" height="42" viewBox="0 0 130 42">
  <defs>
    <linearGradient id="linear-gradient" x1="-3.234" y1="2.301" x2="-2.865" y2="1.797" gradientUnits="objectBoundingBox">
      <stop offset="0" stop-color="#fff"/>
      <stop offset="1" stop-color="#e1e1e1"/>
    </linearGradient>
    <linearGradient id="linear-gradient-2" x1="-8.577" y1="5.715" x2="-8.433" y2="5.582" gradientUnits="objectBoundingBox">
      <stop offset="0" stop-color="#fff"/>
      <stop offset="1" stop-color="#c8c8c8"/>
    </linearGradient>
    <linearGradient id="linear-gradient-3" x1="-4.783" y1="7.273" x2="-4.978" y2="9.052" gradientUnits="objectBoundingBox">
      <stop offset="0.127" stop-color="#8a0000"/>
      <stop offset="0.244" stop-color="#900000"/>
      <stop offset="0.398" stop-color="#a00000"/>
      <stop offset="0.573" stop-color="#bc0000" stop-opacity="0.996"/>
      <stop offset="0.761" stop-color="#e20000" stop-opacity="0.996"/>
      <stop offset="0.867" stop-color="#fa0000" stop-opacity="0.996"/>
    </linearGradient>
    <linearGradient id="linear-gradient-4" x1="-4.587" y1="6.484" x2="-4.789" y2="8.199" gradientUnits="objectBoundingBox">
      <stop offset="0.315" stop-color="#5e0000"/>
      <stop offset="0.444" stop-color="#830000"/>
      <stop offset="0.618" stop-color="#ae0000" stop-opacity="0.996"/>
      <stop offset="0.775" stop-color="#cd0000" stop-opacity="0.996"/>
      <stop offset="0.908" stop-color="#e00000" stop-opacity="0.996"/>
      <stop offset="1" stop-color="#e70000" stop-opacity="0.996"/>
    </linearGradient>
  </defs>
  <g id="Group_222046" data-name="Group 222046" transform="translate(-1090 -2278)">
    <rect id="Rectangle_162968" data-name="Rectangle 162968" width="130" height="42" rx="6" transform="translate(1090 2278)" fill="#017afc"/>
    <text id="عرض_الملف" data-name="عرض الملف" transform="translate(1107 2302)" fill="#fff" font-size="13" font-family="ElMessiri-Regular, El Messiri"><tspan x="0" y="0">عرض الملف</tspan></text>
    <g id="Group_178285" data-name="Group 178285" transform="translate(1186.6 2285)">
      <ellipse id="Ellipse_872" data-name="Ellipse 872" cx="13" cy="13.5" rx="13" ry="13.5" transform="translate(0.4)" fill="#fff"/>
      <g id="SvgjsG1042" transform="translate(4.673 4.988)">
        <g id="Group_178284" data-name="Group 178284" transform="translate(0 0)">
          <path id="Path_41637" data-name="Path 41637" d="M-46.192-137.833h7.825a21.228,21.228,0,0,1,5.078,5.086v12.038h-12.9Z" transform="translate(49.988 137.833)" fill="url(#linear-gradient)"/>
          <path id="Path_41638" data-name="Path 41638" d="M-46.192-137.833h7.825a21.228,21.228,0,0,1,5.078,5.086v12.038h-12.9Z" transform="translate(49.988 137.833)" fill="none" stroke="#c8c8c8" stroke-width="0.5"/>
          <path id="Path_41639" data-name="Path 41639" d="M232.147-137.833a21.462,21.462,0,0,1,5.078,5.086,4.564,4.564,0,0,0-3.6-1.369A4.065,4.065,0,0,0,232.147-137.833Z" transform="translate(-220.526 137.833)" fill="url(#linear-gradient-2)"/>
          <path id="Path_41640" data-name="Path 41640" d="M232.147-137.833a21.462,21.462,0,0,1,5.078,5.086,4.564,4.564,0,0,0-3.6-1.369A4.065,4.065,0,0,0,232.147-137.833Z" transform="translate(-220.526 137.833)" fill="none" stroke="#c8c8c8" stroke-width="0.5"/>
          <path id="Path_41641" data-name="Path 41641" d="M-173.561-95.046h11.648v3.915h-11.648Z" transform="translate(173.777 96.249)" fill="none" stroke="#c8c8c8" stroke-width="6.005"/>
          <path id="Path_41642" data-name="Path 41642" d="M.208,59.006C.522,58.39.88,57.7,1.166,57l.113-.275a7.436,7.436,0,0,1-.4-3.3.51.51,0,0,1,.515-.309l.145,0h.027c.326-.005.48.41.5.571a2.6,2.6,0,0,1-.1.723,1.78,1.78,0,0,0-.109-.736c-.135-.3-.264-.473-.379-.5a.364.364,0,0,0-.134.275,3.953,3.953,0,0,0-.052.634,7.092,7.092,0,0,0,.292,1.841c.037-.105.069-.207.094-.3.04-.15.292-1.141.292-1.141S1.91,55.8,1.821,56.2c-.019.084-.04.168-.062.253a5.794,5.794,0,0,0,1.447,2.261,4.522,4.522,0,0,0,.837.575,11.419,11.419,0,0,1,1.7-.127,2.127,2.127,0,0,1,1.307.292.5.5,0,0,1,.143.326.984.984,0,0,1-.028.19c.007-.034.007-.2-.51-.369a6.013,6.013,0,0,0-2.082-.029,4.213,4.213,0,0,0,2.413.62.687.687,0,0,0,.177-.171,1.835,1.835,0,0,1-.1.327.515.515,0,0,1-.254.174,5.393,5.393,0,0,1-3.026-.849A24.721,24.721,0,0,0-.109,60.6c-1.13,1.981-1.98,2.891-2.671,2.545l-.254-.128a.294.294,0,0,1-.1-.32c.081-.394.575-.988,1.568-1.581.107-.065.583-.317.583-.317s-.353.341-.435.408a3.674,3.674,0,0,0-1.363,1.784l0,.028c.673-.1,1.683-1.467,2.982-4.007m.411.211C.4,59.626.191,60-.005,60.352a16.586,16.586,0,0,1,3.357-.95c-.149-.1-.294-.212-.43-.327a5.757,5.757,0,0,1-1.414-1.841,15.762,15.762,0,0,1-.888,1.983m6.81,1.569h.042c.046,0,.086-.014.086-.054s-.02-.054-.08-.054a.216.216,0,0,0-.048,0Zm0,.187H7.367V60.64a.688.688,0,0,1,.116-.009.163.163,0,0,1,.105.026.084.084,0,0,1-.032.15v0a.1.1,0,0,1,.056.08.229.229,0,0,0,.024.084H7.573a.231.231,0,0,1-.026-.088c-.008-.036-.029-.052-.078-.052h-.04Zm.064.146a.32.32,0,1,1,.32-.319A.32.32,0,0,1,7.494,61.12Zm.256-.32a.256.256,0,1,0-.256.256A.256.256,0,0,0,7.749,60.8Z" transform="translate(8.146 -47.744)" fill="#f91d0a"/>
          <path id="Path_41643" data-name="Path 41643" d="M135.571,356.319l-.087-.56c-.025-.161-.056-.413-.081-.587h-.009c-.026.176-.061.435-.086.588l-.093.558Zm-.4.364-.113.621h-.417l.519-2.582h.511l.472,2.582h-.419l-.111-.621Zm1.921-.533a.682.682,0,0,0-.006-.111c-.017-.128-.08-.243-.179-.243-.172,0-.236.27-.236.585,0,.362.09.568.229.568.064,0,.136-.036.177-.187a.417.417,0,0,0,.015-.118Zm.427-1.5v2.115c0,.168.008.374.014.536h-.37l-.024-.216h-.009a.41.41,0,0,1-.358.246c-.354,0-.529-.425-.529-.961,0-.653.262-.971.547-.971a.3.3,0,0,1,.294.195h.008v-.943Zm.89,2.323c.164,0,.2-.334.2-.612s-.04-.606-.21-.606-.219.343-.219.606c0,.318.048.612.222.612Zm-.008.357c-.394,0-.641-.345-.641-.96,0-.672.317-.972.651-.972.388,0,.633.361.633.96,0,.77-.382.971-.639.971Zm1.309-.7a.414.414,0,0,0,.017.119c.043.157.116.2.174.2.165,0,.232-.228.232-.593,0-.332-.071-.561-.234-.561-.081,0-.15.1-.173.2a.523.523,0,0,0-.016.118Zm-.427-1.982h.427v.975h.007a.4.4,0,0,1,.359-.226c.323,0,.484.4.484.92,0,.659-.241,1.012-.554,1.012-.149,0-.249-.072-.338-.254h-.009l-.024.224h-.367c.006-.156.015-.368.015-.536v-2.115Zm2.3,1.536c0-.263-.069-.446-.2-.446-.155,0-.221.247-.226.446Zm-.431.329c.005.338.168.449.371.449a.845.845,0,0,0,.321-.065l.057.335a1.151,1.151,0,0,1-.456.087c-.459,0-.709-.341-.709-.924,0-.625.291-1,.67-1s.57.332.57.874a1.785,1.785,0,0,1-.013.248Z" transform="translate(-125.758 -340.809)" fill="#1a171b"/>
          <path id="Path_41644" data-name="Path 41644" d="M-173.741-94.495h11.648v3.915h-11.648Z" transform="translate(173.952 95.713)" fill="url(#linear-gradient-3)"/>
          <path id="Path_41645" data-name="Path 41645" d="M-169.155-98.465h-12.081v-4.385h12.081Zm-.435-3.95H-180.8V-98.9h11.212Z" transform="translate(181.236 103.833)" fill="url(#linear-gradient-4)"/>
          <path id="Path_41646" data-name="Path 41646" d="M-65.448-74.06h.848a.741.741,0,0,1,.58.223.9.9,0,0,1,.2.632.912.912,0,0,1-.2.636.744.744,0,0,1-.58.221h-.337v.91h-.511V-74.06m.511.49v.733h.283a.285.285,0,0,0,.229-.095.412.412,0,0,0,.081-.272.4.4,0,0,0-.081-.271.285.285,0,0,0-.229-.095h-.283m1.99.021v1.6h.183a.575.575,0,0,0,.478-.206.932.932,0,0,0,.166-.6.927.927,0,0,0-.165-.594.579.579,0,0,0-.479-.2h-.183m-.511-.511h.538a1.959,1.959,0,0,1,.671.086.866.866,0,0,1,.379.288,1.2,1.2,0,0,1,.207.409,1.877,1.877,0,0,1,.068.525,1.91,1.91,0,0,1-.068.531,1.2,1.2,0,0,1-.207.409.886.886,0,0,1-.382.29,2,2,0,0,1-.669.084h-.538V-74.06m2.255,0h1.378v.511h-.868v.488h.816v.511h-.816v1.112H-61.2V-74.06" transform="translate(68.703 75.853)" fill="#fff9f9"/>
        </g>
      </g>
    </g>
  </g>
</svg>
