<svg xmlns="http://www.w3.org/2000/svg" xmlns:xlink="http://www.w3.org/1999/xlink" width="93" height="30" viewBox="0 0 93 30">
  <defs>
    <linearGradient id="linear-gradient" x1="-3.234" y1="2.301" x2="-2.865" y2="1.797" gradientUnits="objectBoundingBox">
      <stop offset="0" stop-color="#fff"/>
      <stop offset="1" stop-color="#e1e1e1"/>
    </linearGradient>
    <linearGradient id="linear-gradient-2" x1="-8.577" y1="5.715" x2="-8.433" y2="5.582" gradientUnits="objectBoundingBox">
      <stop offset="0" stop-color="#fff"/>
      <stop offset="1" stop-color="#c8c8c8"/>
    </linearGradient>
    <linearGradient id="linear-gradient-3" x1="-4.783" y1="7.273" x2="-4.978" y2="9.052" gradientUnits="objectBoundingBox">
      <stop offset="0.127" stop-color="#8a0000"/>
      <stop offset="0.244" stop-color="#900000"/>
      <stop offset="0.398" stop-color="#a00000"/>
      <stop offset="0.573" stop-color="#bc0000" stop-opacity="0.996"/>
      <stop offset="0.761" stop-color="#e20000" stop-opacity="0.996"/>
      <stop offset="0.867" stop-color="#fa0000" stop-opacity="0.996"/>
    </linearGradient>
    <linearGradient id="linear-gradient-4" x1="-4.587" y1="6.484" x2="-4.789" y2="8.199" gradientUnits="objectBoundingBox">
      <stop offset="0.315" stop-color="#5e0000"/>
      <stop offset="0.444" stop-color="#830000"/>
      <stop offset="0.618" stop-color="#ae0000" stop-opacity="0.996"/>
      <stop offset="0.775" stop-color="#cd0000" stop-opacity="0.996"/>
      <stop offset="0.908" stop-color="#e00000" stop-opacity="0.996"/>
      <stop offset="1" stop-color="#e70000" stop-opacity="0.996"/>
    </linearGradient>
  </defs>
  <g id="Group_221904" data-name="Group 221904" transform="translate(-1090 -2278)">
    <rect id="Rectangle_162968" data-name="Rectangle 162968" width="93" height="30" rx="6" transform="translate(1090 2278)" fill="#017afc"/>
    <text id="عرض_الملف" data-name="عرض الملف" transform="translate(1102 2296)" fill="#fff" font-size="10" font-family="ElMessiri-Regular, El Messiri"><tspan x="0" y="0">عرض الملف</tspan></text>
    <g id="Group_178285" data-name="Group 178285" transform="translate(978 1887.349)">
      <circle id="Ellipse_872" data-name="Ellipse 872" cx="9.5" cy="9.5" r="9.5" transform="translate(181 395.651)" fill="#fff"/>
      <g id="SvgjsG1042" transform="translate(184.338 399.214)">
        <g id="Group_178284" data-name="Group 178284" transform="translate(0 0)">
          <path id="Path_41637" data-name="Path 41637" d="M-46.192-137.833H-40.6a15.163,15.163,0,0,1,3.627,3.633v8.6h-9.216Z" transform="translate(48.904 137.833)" fill="url(#linear-gradient)"/>
          <path id="Path_41638" data-name="Path 41638" d="M-46.192-137.833H-40.6a15.163,15.163,0,0,1,3.627,3.633v8.6h-9.216Z" transform="translate(48.904 137.833)" fill="none" stroke="#c8c8c8" stroke-width="0.5"/>
          <path id="Path_41639" data-name="Path 41639" d="M232.147-137.833a15.33,15.33,0,0,1,3.627,3.633,3.26,3.26,0,0,0-2.57-.978A2.9,2.9,0,0,0,232.147-137.833Z" transform="translate(-223.846 137.833)" fill="url(#linear-gradient-2)"/>
          <path id="Path_41640" data-name="Path 41640" d="M232.147-137.833a15.33,15.33,0,0,1,3.627,3.633,3.26,3.26,0,0,0-2.57-.978A2.9,2.9,0,0,0,232.147-137.833Z" transform="translate(-223.846 137.833)" fill="none" stroke="#c8c8c8" stroke-width="0.5"/>
          <path id="Path_41641" data-name="Path 41641" d="M-173.561-95.046h8.32v2.8h-8.32Z" transform="translate(173.715 95.905)" fill="none" stroke="#c8c8c8" stroke-width="6.005"/>
          <path id="Path_41642" data-name="Path 41642" d="M-.748,57.322c.225-.44.48-.936.684-1.435l.081-.2a5.312,5.312,0,0,1-.284-2.358A.364.364,0,0,1,.1,53.112l.1,0H.223c.233,0,.343.293.355.408a1.856,1.856,0,0,1-.068.517,1.272,1.272,0,0,0-.078-.526c-.1-.212-.188-.338-.271-.358a.26.26,0,0,0-.1.2,2.824,2.824,0,0,0-.037.453,5.066,5.066,0,0,0,.209,1.315c.026-.075.049-.148.067-.215.028-.107.209-.815.209-.815S.467,55.031.4,55.316c-.014.06-.029.12-.044.181a4.138,4.138,0,0,0,1.034,1.615,3.23,3.23,0,0,0,.6.41A8.156,8.156,0,0,1,3.2,57.431a1.519,1.519,0,0,1,.934.209.355.355,0,0,1,.1.233.7.7,0,0,1-.02.136c0-.025,0-.146-.364-.263a4.3,4.3,0,0,0-1.487-.021,3.01,3.01,0,0,0,1.724.443.491.491,0,0,0,.126-.122,1.311,1.311,0,0,1-.071.233.368.368,0,0,1-.182.124A3.852,3.852,0,0,1,1.805,57.8a17.658,17.658,0,0,0-2.78.661c-.807,1.415-1.414,2.065-1.908,1.818l-.182-.091a.21.21,0,0,1-.068-.229c.058-.282.411-.706,1.12-1.13.076-.046.417-.226.417-.226s-.252.244-.311.292a2.624,2.624,0,0,0-.974,1.274l0,.02c.481-.069,1.2-1.048,2.13-2.862m.294.15c-.155.292-.306.562-.446.811A11.847,11.847,0,0,1,1.5,57.6c-.106-.074-.21-.151-.307-.234A4.112,4.112,0,0,1,.18,56.056a11.259,11.259,0,0,1-.635,1.417M4.41,58.594h.03c.033,0,.061-.01.061-.039s-.014-.039-.057-.039a.155.155,0,0,0-.034,0Zm0,.134H4.365v-.238a.492.492,0,0,1,.083-.007.117.117,0,0,1,.075.018.06.06,0,0,1-.023.107v0a.072.072,0,0,1,.04.057.163.163,0,0,0,.017.06H4.513a.165.165,0,0,1-.019-.063c-.006-.026-.021-.037-.055-.037H4.41Zm.046.1a.228.228,0,1,1,.228-.228A.228.228,0,0,1,4.456,58.832Zm.183-.228a.183.183,0,1,0-.183.183A.183.183,0,0,0,4.638,58.6Z" transform="translate(6.716 -49.278)" fill="#f91d0a"/>
          <path id="Path_41643" data-name="Path 41643" d="M135.3,355.844l-.062-.4c-.018-.115-.04-.295-.058-.419h-.007c-.018.125-.043.311-.062.42l-.067.4Zm-.288.26-.081.443h-.3l.371-1.844h.365l.337,1.844h-.3l-.079-.443Zm1.372-.38a.487.487,0,0,0,0-.08c-.012-.091-.057-.173-.128-.173-.123,0-.168.193-.168.418,0,.258.064.406.164.406.046,0,.1-.026.126-.134a.3.3,0,0,0,.011-.084Zm.305-1.069v1.51c0,.12.006.267.01.383h-.264l-.017-.154h-.007a.293.293,0,0,1-.256.175c-.253,0-.378-.3-.378-.686,0-.467.187-.694.391-.694a.216.216,0,0,1,.21.139h.005v-.673Zm.636,1.659c.117,0,.145-.239.145-.437s-.028-.433-.15-.433-.156.245-.156.433c0,.227.035.437.159.437Zm-.005.255c-.281,0-.458-.246-.458-.686,0-.48.226-.694.465-.694.277,0,.452.258.452.686,0,.55-.273.694-.456.694Zm.935-.5a.3.3,0,0,0,.012.085c.03.112.083.139.124.139.118,0,.166-.163.166-.423,0-.237-.051-.4-.167-.4-.058,0-.107.069-.124.142a.373.373,0,0,0-.012.084Zm-.305-1.416h.305v.7h0a.285.285,0,0,1,.256-.162c.23,0,.346.285.346.657,0,.471-.172.723-.4.723-.107,0-.178-.051-.242-.182h-.006l-.017.16h-.262c0-.111.01-.263.01-.383v-1.51Zm1.644,1.1c0-.188-.049-.319-.146-.319s-.158.176-.161.319Zm-.308.235c0,.242.12.32.265.32a.6.6,0,0,0,.229-.046l.041.239a.822.822,0,0,1-.326.062c-.328,0-.507-.243-.507-.66,0-.447.208-.715.479-.715s.407.237.407.624a1.274,1.274,0,0,1-.009.177Z" transform="translate(-128.295 -344.765)" fill="#1a171b"/>
          <path id="Path_41644" data-name="Path 41644" d="M-173.741-94.5h8.32v2.8h-8.32Z" transform="translate(173.891 95.365)" fill="url(#linear-gradient-3)"/>
          <path id="Path_41645" data-name="Path 41645" d="M-172.606-99.718h-8.63v-3.132h8.63Zm-.31-2.822h-8.009v2.51h8.009Z" transform="translate(181.236 103.552)" fill="url(#linear-gradient-4)"/>
          <path id="Path_41646" data-name="Path 41646" d="M-65.448-74.06h.605a.529.529,0,0,1,.414.159.645.645,0,0,1,.145.452.651.651,0,0,1-.145.454.531.531,0,0,1-.414.158h-.241v.65h-.365V-74.06m.365.35v.523h.2a.2.2,0,0,0,.164-.068.3.3,0,0,0,.058-.195.289.289,0,0,0-.058-.193.2.2,0,0,0-.164-.068h-.2m1.421.015v1.143h.131a.411.411,0,0,0,.341-.147.666.666,0,0,0,.118-.427.662.662,0,0,0-.118-.424.414.414,0,0,0-.342-.146h-.131m-.365-.365h.385a1.4,1.4,0,0,1,.479.061.618.618,0,0,1,.271.206.856.856,0,0,1,.148.292,1.34,1.34,0,0,1,.048.375,1.364,1.364,0,0,1-.048.379.856.856,0,0,1-.148.292.633.633,0,0,1-.273.207,1.43,1.43,0,0,1-.478.06h-.385V-74.06m1.611,0h.984v.365h-.62v.349h.583v.365h-.583v.794h-.365V-74.06" transform="translate(67.773 75.341)" fill="#fff9f9"/>
        </g>
      </g>
    </g>
  </g>
</svg>
